<svg id="visual" viewBox="0 0 960 540" width="960" height="540" xmlns="http://www.w3.org/2000/svg" xmlns:xlink="http://www.w3.org/1999/xlink" version="1.1"><rect x="0" y="0" width="960" height="540" fill="#fcfeff"></rect><path d="M0 412L14.5 380.3C29 348.7 58 285.3 87.2 238.3C116.3 191.3 145.7 160.7 174.8 144.8C204 129 233 128 262 128C291 128 320 129 349 176C378 223 407 316 436.2 334.2C465.3 352.3 494.7 295.7 523.8 295.7C553 295.7 582 352.3 611 363.8C640 375.3 669 341.7 698 303C727 264.3 756 220.7 785.2 216.3C814.3 212 843.7 247 872.8 243.5C902 240 931 198 945.5 177L960 156L960 541L945.5 541C931 541 902 541 872.8 541C843.7 541 814.3 541 785.2 541C756 541 727 541 698 541C669 541 640 541 611 541C582 541 553 541 523.8 541C494.7 541 465.3 541 436.2 541C407 541 378 541 349 541C320 541 291 541 262 541C233 541 204 541 174.8 541C145.7 541 116.3 541 87.2 541C58 541 29 541 14.5 541L0 541Z" fill="#e3e7ed" stroke-linecap="round" stroke-linejoin="miter"></path></svg>