<svg clip-rule="evenodd" fill-rule="evenodd" stroke-linejoin="round" stroke-miterlimit="2" viewBox="0 0 327 263" xmlns="http://www.w3.org/2000/svg" xmlns:xlink="http://www.w3.org/1999/xlink"><linearGradient id="a" gradientTransform="matrix(0 -195.748 195.748 0 266.011 253.518)" gradientUnits="userSpaceOnUse" x1="0" x2="1" y1="0" y2="0"><stop offset="0" stop-color="#808080" stop-opacity=".25"/><stop offset=".54" stop-color="#808080" stop-opacity=".12"/><stop offset="1" stop-color="#808080" stop-opacity=".1"/></linearGradient><path d="m189.979 30.037c-20.963-.604-40.927-6.24-59.978-12.407-19.052-6.168-37.964-12.989-58.424-16.256-13.159-2.101-28.208-2.398-38.811 3.476-10.205 5.652-13.5 15.411-15.272 24.469-1.337 6.812-2.12 13.984 1.535 20.36 2.528 4.423 7.043 8.148 10.158 12.388 10.837 14.757 3.178 32.953-8.569 47.36-5.51 6.758-11.901 13.206-16.154 20.4-4.252 7.194-6.211 15.443-2.499 22.773 3.687 7.267 12.474 12.736 21.993 16.581 19.332 7.803 42.115 10.037 64.329 11.304 49.173 2.799 98.612 1.58 147.918.373 18.245-.449 36.573-.904 54.525-3.254 9.968-1.305 20.258-3.375 27.487-8.373 9.187-6.344 11.462-17.089 5.308-25.045-10.325-13.345-38.861-16.659-46.093-30.981-3.975-7.883.107-16.666 5.88-23.977 12.384-15.683 33.145-29.442 34.238-47.369.749-12.322-9.228-24.643-24.659-30.469-16.173-6.107-38.602-5.34-50.551 4.77-12.262 10.408-33.853 14.423-52.361 13.877z" fill="#c3c5c7" fill-opacity=".2" fill-rule="nonzero"/><ellipse cx="137.577" cy="253.477" fill="#c3c5c7" fill-opacity=".2" rx="91.86" ry="9.263"/><g fill-rule="nonzero"><path d="m313.481 119.477c.189-.519-1.232-3.39-1.232-3.533 0-.142-1.469-1.744-1.469-2.638s-1.947-2.824-1.947-2.824-2.606-1.084-2.891-3.438c-.284-2.353-3.124-2.404-3.131-2.404-.006 0 0-.215.019-.54 0-.733-.022-2.041-.35-2.755-.338-.65-.918-1.141-1.615-1.368-.696-.227-.284-1.836-.853-2.401-.645-.674-.898-1.637-.666-2.541.284-.894-.38-3.159-1.757-3.475-1.378-.316-2.938-.847-2.938-.847s-.155.029-.379.06l-.19-.06c-.33.061-.663.102-.998.123-.291.011-.576-.084-.803-.265-.477-.518-4.319-1.507-5.03-1.507s-2.752-.948-2.752-.948l-2.034-1.554c-.572-.436-1.63-2.212-1.785-2.461l-.019-.035c-.175-.401-.319-.815-.43-1.239.694-.725 1.287-1.54 1.763-2.423.051-.092.095-.186.139-.278.107-.002.214-.019.316-.05.041 0 .082-.032.123-.048.481-.253.843-.686 1.008-1.204.035-.101.066-.205.092-.316 0-.034 0-.072.022-.107s.031-.142.044-.215c.013-.072.016-.082.022-.12s.022-.142.032-.215c.009-.072 0-.079 0-.117 0-.091.022-.18.035-.268.031-.334.081-.666.148-.995s0 0 0 0c.284-1.264 1.052-2.357 1.599-3.539.079-.167.151-.341.218-.515.066-.174.132-.379.186-.572l.047-.177c.035-.139.067-.281.095-.423 0-.063.026-.126.035-.19.032-.196.06-.391.076-.59.102-1.129-.059-2.265-.471-3.321-.357-.885-.885-1.681-1.245-2.565-.546-1.34-.688-2.844-1.355-4.133-1.115-2.142-3.744-3.213-5.905-2.407-1.033.382-1.927 1.127-2.973 1.462-1.403.446-2.9.111-4.351-.091-1.45-.202-3.055-.218-4.221.73-1.342 1.09-1.712 3.14-2.973 4.337-.527.503-1.188.825-1.747 1.289-.392.315-.694.728-.875 1.198 0 .035-.022.066-.032.101-.009.035-.022.079-.031.12-.01.041-.019.095-.025.142-.007.048 0 .067 0 .098-.007.084-.007.169 0 .253.009.08.022.159.041.237v.066c0 .022.038.13.06.196-.002.013-.002.025 0 .038.025.073.053.142.082.215l.047.107.038.089c.185.347.333.714.439 1.093.059.24.045.492-.041.723-.128.263-.308.497-.527.689-.944.982-1.672 2.149-2.139 3.428-.054.145-.108.291-.155.442l.066.016c.135.042.274.072.414.092.079 0 .158.019.24.025.324.017.649-.008.967-.076.079-.015.161-.034.24-.057.326-.089.642-.207.948-.35v.448c.007 4.243 2.422 8.132 6.221 10.019 0 .101.028.205.041.316.013.11.022.17.032.256l-.127-.123s-.856-.424-1.662.799c-.805 1.223-2.322 1.791-2.322 1.791s-8.631 1.365-8.963 2.496l-4.032.234s-1.424.19-1.579 3.159c-.155 2.97-.901 3.252-.901 3.252s-1.658 2.919-1.516 4.423-1.264 2.262-1.264 2.262l-.19 2.682s-1.579-.234-1.993 1.602-1.185 2.686-1.185 2.686-2.61 2.167-2.752 4.003l-1.611.988s-3.747-.846-4.6-2.353l-.262-.247c-.009-.012-.016-.024-.023-.038v.019c-.562-.531-1.75-1.636-1.579-1.384.11.237.137.505.076.759l-.278-.316-.746-.828s-6.057-5.687-9.614-6.123c-.048-.092-.275-.986-.882-.427-1.024.937-1.608 2.262-1.608 3.65 0 1.371.57 2.682 1.574 3.617l5.671 5.299.145.107 1.22 1.58c-.206.493-.38.97-.522 1.406 0 0 0 .028-.016.041-.028.094-.06.183-.088.271l-.028.095c-.026.089-.054.177-.079.259-.026.082-.029.104-.045.155-.015.051 0 .06-.025.088-.133.474-.221.838-.265 1.04l-.316-.098.316.133v.05l-.019.098.29.127c1.662.723 9.956 4.36 10.382 4.912.474.61 3.602 2.402 6.449.895 2.846-1.507 3.475-3.817 3.475-3.817s2.749-3.813 2.843-4.379c.095-.565 2.231-1.226 2.231-1.226s.19 6.319-.9 8.619-3.131 12.53-3.131 12.53c.133-.026.269-.035.404-.025-.076.37-.12.591-.12.591.166-.03.336-.03.502 0-.151 1.163-1.023 6.559-1.023 6.559s-.285 2.448-.759 3.295-.521 5.276-.521 5.276l-.758 3.201c.086.189.182.373.287.553.106.179.815 1.807 2.183 2.821-.062.503-.191.996-.382 1.466-.296.714-.426 1.487-.379 2.259s-.806 3.627-.711 4.663c.095 1.037-.521 3.58-.521 3.58l-.882 8.17s-.568 7.112-.284 9.046c.284 1.933-.193 4.565-.193 4.565s.569 5.605.427 6.218-.853 3.248-.427 4.71c.427 1.463.193 5.463.193 5.463s.284 5.273.613 6.97c.329 1.696-.095 3.864-.095 3.864s-.316 3.624-.474 3.624-1.374 2.496 1.138 4.947c2.511 2.452.948 2.07.948 2.07s-1.991-.989-1.757 1.036c.227 1.927.54 1.425.569 1.371l-.474 1.548.316.048-.275.316c-.285.359-.602.691-.948.992-.572.423-.632 1.365-.632 1.365s-3.507 3.816-6.78 5.747c-1.722 1.017-3.207 1.876-3.855 2.587-.584.632-.489 1.156.724 1.558 2.562.846 7.064 1.263 10.29.189 1.923-.642 3.652-1.761 5.027-3.251 1.374-1.49 2.041-1.036 4.034-.66 1.994.376 5.975-2.212 5.975-2.212l-.073-.67-.212-1.924c-.27-.327-.391-.754-.331-1.175.023-.57-.033-1.14-.168-1.693-.031-.187-.069-.373-.104-.547l.363-.066s-.47-2.405.383-2.875c.853-.471.613-6.635.613-6.635s-1.087-1.412-1.659-1.646-.048-3.16.05-3.536.853-7.677.853-7.677-.284-2.306.095-3.295-.455-4.78-.455-4.78-.284-.471.24-1.037c.525-.565.316-5.605.316-5.605s-.044-2.543-.044-3.203c0-.661.569-3.062 1.09-3.861s.19-3.298.19-3.298l.028-.187c0-.073.025-.161.044-.268l.041-.25c.232-1.388.545-2.76.939-4.11.632-1.978 1.327-5.463 1.327-5.463l4.423-11.5.05-.136s2.038 3.769 2.038 7.266c0 0 .522 4.193.379 5.324-.142 1.131.421 6.423.421 6.423s.616 7.63.616 7.962.758 6.218 1.235 7.112-.477 3.627-.761 3.908c-.285.281.094 7.207.094 7.207s-.71 5.462-.853 6.593c-.142 1.131-.71 5.466-.237 7.16.474 1.693.285 1.93.285 1.93s1.709 1.744.711 1.896c-1.194.26-2.052 1.325-2.052 2.546 0 .303.053.603.156.888.59 1.727 1.288 3.415 2.088 5.055.801 1.64.294-.066.784-.164v.559l.057 2.806s.316 2.685.142 3.298c-.139.449-.316 2.559-.42 3.662-.035.401-.054.67-.054.67s0 2.495 5.264 1.744c5.263-.752 6.211-2.825 6.211-2.825s0-.098.038-.259c.079-.477.25-1.488.389-2.051.189-.755-1.517-4.145-1.517-4.145s-.284-2.306-.761-2.824c-.196-.299-.325-.636-.38-.989-.044-.19-.082-.389-.113-.581.118.015.235.036.35.063.116.027-.284-1.649.809-2.168 1.093-.518.806-1.598.664-2.072s.426-3.109.426-3.109c-.155-.532-.01-1.109.379-1.504.667-.663 1.185-5.276 1.185-5.276l.095-17.804s.335-3.159-.044-4.423c-.379-1.263-.762-3.718-.24-4.379.521-.66.047-3.718.047-3.718s0-6.455.714-8.054c.714-1.598.474-11.727.474-11.727l.186-6.635s1.552-1.466 1.185-9.109c1.653-.104 3.517-.164 3.791.063.522.427 3.89 2.591 5.88 1.226.427-.189 2.37-1.835 2.37-1.835l-.834-14.123c.521.787.837 1.311.837 1.311 0-1.978 5.595-8.385 5.595-8.385s5.216-6.733 6.354-7.535c1.137-.803 3.368-5.039 3.368-5.039.329-.809.71-1.595 1.14-2.354.541-.869-1.169-3.131-.979-3.649zm-12.24 4.941c-1.421.142-4.423 3.393-4.458 4.107-.022.373-.338.872-.632 1.264-.022-.284-.047-.575-.069-.869-.335-4.161-.698-9.232-.534-9.725.287-.846.19-4.66.19-4.66l.05-.072c.948 2.954 3.927 6.439 3.927 6.439s.522 1.507 1.138 1.554.388 1.962.388 1.962z" fill="url(#a)"/><path d="m225.207 123.347s1.728-9.068 7.292-9.115l4.066 8.366-2.711 1.871s-5.889.186-8.647-1.122z" fill="#424c51"/><path d="m236.565 122.598-2.711 1.871s-4.145.132-7.109-.598c-.528-.125-1.043-.3-1.538-.524s0-.051.031-.145v-.035c.256-1.138.607-2.252 1.052-3.33.174-.408.367-.828.575-1.248.815-1.58 1.959-3.103 3.526-3.864.58-.284 1.21-.449 1.855-.484h.246l.089.187 1.374 2.824z" fill-opacity=".1"/><path d="m282.743 160.271s5.845-.559 6.357-.139c.511.42 3.832 2.569 5.797 1.213 1.965-1.355.654-6.075.654-6.262 0-.186-.186-6.871-.186-6.871l-3.507-4.721-4.392-8.271-8.973-.891.234 13.137-.047 6.73z" fill="#424c51"/><path d="m282.743 160.271s5.845-.559 6.357-.139c.511.42 3.832 2.569 5.797 1.213 1.965-1.355.654-6.075.654-6.262 0-.186-.186-6.871-.186-6.871l-3.507-4.721-4.392-8.271-8.973-.891.234 13.137-.047 6.73z" fill-opacity=".1"/><path d="m231.33 113.992s-.468 5.703-4.019 5.794c0 0-1.008-.606-2.363-1.617-3.122-2.335-8.073-6.825-6.705-11.001 1.962-5.981 11.497 5.055 11.497 5.055l.73.821z" fill="#fbbebe"/><path d="m231.33 113.992s-.468 5.703-4.019 5.794c0 0-1.008-.606-2.363-1.617l-.301-.389c.603.314 1.267.493 1.947.524 1.091.044 2.101-.596 2.527-1.601.374-.734.702-1.489.983-2.262.173-.451.295-.92.366-1.397z" fill-opacity=".1"/><path d="m229.788 124.33-.8-1.03-2.691-3.476-1.372-1.772c.603.316 1.267.495 1.947.524.894.022 1.895-.316 2.527-1.598.373-.735.701-1.491.983-2.266.442-1.264.436-1.895.278-2.126s.992.847 1.545 1.371l.019.019.259.243.095.19 1.355 2.708v.113c.133.869.591 6.325-4.145 7.1z" fill="#e7effd"/><path d="m257.787 244.637s-3.928 2.572-5.89 2.212c-1.962-.361-3.974.657-3.974.657-1.353 1.477-3.059 2.587-4.957 3.226-3.16 1.074-7.614.65-10.139-.19-1.194-.398-1.292-.91-.717-1.545.632-.708 2.104-1.558 3.791-2.569 3.226-1.914 6.682-5.686 6.682-5.686s.048-.948.61-1.353c.346-.298.664-.628.948-.985.502-.594.973-1.214.973-1.214l11.551.335s.196.831.351 1.681c.131.551.186 1.118.161 1.684-.06.415.054.838.316 1.166l.208 1.895z" fill="#424c51"/><path d="m281.95 247.863c-.139.559-.316 1.561-.382 2.031l-.042.259s-.947 2.057-6.119 2.806-5.188-1.731-5.188-1.731.019-.266.05-.667c.092-1.093.278-3.188.417-3.633.184-.607-.142-3.274-.142-3.274l-.053-2.783-.041-1.934 8.603-.89c.053.643.146 1.282.278 1.914.052.351.181.686.376.983.467.515.745 2.805.745 2.805s1.684 3.365 1.498 4.114z" fill="#424c51"/><path d="m256.665 237.525s.196.831.351 1.681c-1.248.231-6.701 1.175-8.063.515-1.545-.749-4.863-1.169-4.863-1.169l.054-.19c.503-.594.973-1.213.973-1.213z" fill-opacity=".1"/><path d="m279.331 239.961c-2.18-.37-6.951.525-8.847.91l-.041-1.934 8.603-.89c.055.643.15 1.283.285 1.914z" fill-opacity=".1"/><path d="m284.18 169.105-.186 6.59s.234 10.05-.468 11.64c-.701 1.589-.701 7.993-.701 7.993s.468 3.036-.047 3.69-.139 3.084.233 4.348c.373 1.263.048 4.394.048 4.394l-.095 17.668s-.512 4.578-1.169 5.235c-.383.394-.526.966-.373 1.494.153.529-.559 2.616-.42 3.087s.42 1.542-.654 2.054-.796 2.151-.796 2.151c-2.569-.609-9.861 1.03-9.861 1.03-.788-1.624-1.475-3.295-2.057-5.004-.102-.283-.155-.582-.155-.883 0-1.209.846-2.264 2.026-2.526.979-.142-.702-1.871-.702-1.871s.187-.233-.281-1.914c-.467-1.681.092-6.003.234-7.109s.84-6.543.84-6.543-.372-6.869-.091-7.15 1.213-2.992.749-3.88c-.465-.887-1.22-6.729-1.22-7.058 0-.328-.603-7.898-.603-7.898s-.563-5.283-.421-6.404c.143-1.122-.376-5.28-.376-5.28 0-3.475-2.009-7.2-2.009-7.2l-.05.136-4.332 11.411s-.701 3.457-1.308 5.419c-.384 1.334-.688 2.69-.913 4.06l-.041.249c0 .105-.032.193-.041.263l-.029.189s.316 2.477-.189 3.273c-.506.796-1.074 3.179-1.074 3.833s.047 3.178.047 3.178.186 5.001-.316 5.564c-.502.562-.237 1.027-.237 1.027s.84 3.791.468 4.767c-.373.976-.092 3.27-.092 3.27s-.749 7.248-.84 7.621c-.092.373-.61 3.273-.048 3.507.563.233 1.634 1.633 1.634 1.633s.237 6.126-.607 6.591c-.844.464-.376 2.843-.376 2.843s-6.774 1.308-8.316.559c-1.541-.748-4.862-1.169-4.862-1.169l.465-1.535c-.029.054-.338.553-.56-1.362-.23-2.009 1.732-1.03 1.732-1.03s1.542.376-.948-2.053c-2.49-2.43-1.264-4.91-1.122-4.91s.471-3.596.471-3.596.42-2.151.092-3.835c-.329-1.684-.607-6.919-.607-6.919s.234-3.972-.186-5.419c-.421-1.447.278-4.069.42-4.676.142-.606-.436-6.154-.436-6.154s.467-2.616.186-4.531c-.281-1.914.281-8.976.281-8.976l.841-8.132s.606-2.528.515-3.554c-.092-1.027.704-4.626.704-4.626-.047-.766.08-1.533.373-2.243.468-.948.654-4.019.654-4.019l4.49-10.284 2.211-9.067 29.677-.281s.11.786.29 2.211c.181 1.425.433 3.542.714 6.155.26 2.372.544 5.162.819 8.268.897 9.914-.999 11.69-.999 11.69z" fill="#202527"/><path d="m281.435 87.263-6.919 7.387s-8.878-3.554-7.943-4.768c.36-.47.316-1.955.095-3.592-.316-2.591-1.03-5.57-1.03-5.57s15.516-2.528 14.217.092c-.477.947-.395 2.072-.098 3.105.376 1.198.943 2.328 1.678 3.346z" fill="#fbbebe"/><path d="m279.846 80.818c-.477.948-.705 1.049-.408 2.082-2.028 2.171-4.61 4.553-7.819 4.553-1.718.002-3.413-.395-4.951-1.16-.316-2.59-1.03-5.57-1.03-5.57s15.516-2.527 14.208.095z" fill-opacity=".1"/><path d="m282.746 76.044c-.102 6.033-5.092 10.94-11.126 10.94-6.033 0-11.024-4.907-11.126-10.94v-.158c.043-6.073 5.051-11.046 11.125-11.046 6.102 0 11.124 5.022 11.124 11.125v.079z" fill="#fbbebe"/><path d="m284.354 149.434c-1.472 0-6.379.054-11.863.139h-.067l-1.81.032h-.057c-6.502.104-12.913-1.166-15.481-.926-5.466.512 1.965-5.055 1.965-5.055 4.075.99 8.267 1.416 12.458 1.264l1.579-.082c4.967-.281 9.962-.749 12.572-1.533.173 1.447.423 3.548.704 6.161z" fill-opacity=".1"/><path d="m284.354 149.153c-1.472 0-6.379.054-11.863.139h-.067l-1.81.032h-.057c-6.502.104-12.913-1.166-15.481-.926-5.466.515 1.965-5.055 1.965-5.055 4.075.99 8.267 1.415 12.458 1.264l1.579-.082c4.967-.282 9.962-.749 12.572-1.53.173 1.447.423 3.539.704 6.158z" fill="#7d7d7d"/><path d="m268.63 90.347-8.6 4.022-6.635 51.318s3.924-1.775 6.17-.654c2.247 1.122 9.163.095 9.163.095s5.055-.281 5.797.281c.743.563 9.529-2.35 9.529-2.35s1.58-3.552.373-4.108.385-6.069.385-6.069l-.758-37.019-1.498-4.767-4.018-2.43-4.108 3.27-1.962.281z" fill-opacity=".1"/><path d="m268.63 89.788-8.6 4.018-6.635 51.322s3.924-1.776 6.17-.654c2.247 1.122 9.163.092 9.163.092s5.055-.278 5.797.281c.743.559 9.535-2.338 9.535-2.338s1.58-3.551.373-4.107.379-6.085.379-6.085l-.758-37.016-1.498-4.765-4.018-2.432-4.108 3.273-1.962.281z" fill="#e7effd"/><path d="m268.488 92.17s2.477 2.944 2.432 3.554c-.044.61-.142 2.057-.142 2.057l-1.87 3.791s-1.027 4.72-1.027 5.703-1.637 9.478-1.637 9.478l-1.968 13.09-2.477 17.155 2.528 4.345 2.988-2.528 3.975-30.571.84-6.028s.888-10.843.888-11.964c0-1.122-.512-4.067-.512-4.067s.607-2.805 3.131-3.475c2.525-.67-.186-.142-.186-.142l-1.45-1.166-1.264.512s-3.501-1.052-4.249.256z" fill-opacity=".1"/><path d="m268.206 91.892s2.48 2.944 2.433 3.551-.142 2.057-.142 2.057l-1.867 3.791s-1.03 4.72-1.03 5.703c0 .982-1.637 9.478-1.637 9.478l-1.962 13.086-2.477 17.156 2.528 4.347 2.992-2.527 3.971-30.568.844-6.025s.887-10.843.887-11.964c0-1.122-.511-4.066-.511-4.066s.606-2.806 3.131-3.46c2.524-.654-.187-.139-.187-.139l-1.45-1.169-1.264.515s-3.51-1.077-4.259.234z" fill="#ed1c24"/><path d="m266.573 86.982s-.376.281-.468 2.152c-.091 1.87-1.402 6.075-1.402 6.075s4.862-3.365 7.291-2.992z" fill-opacity=".1"/><path d="m266.573 86.423s-.376.278-.468 2.148c-.091 1.871-1.402 6.076-1.402 6.076s4.862-3.365 7.291-2.989z" fill="#e7effd"/><path d="m279.846 85.488-7.671 6.729s6.451 3.833 7.292 4.768c.84.935 1.68-9.163 1.68-9.163z" fill-opacity=".1"/><path d="m280.127 84.925-7.665 6.733s6.448 3.832 7.295 4.768c.847.935 1.681-9.163 1.681-9.163z" fill="#e7effd"/><path d="m266.851 86.982s-.84-.42-1.633.796c-.584.793-1.378 1.408-2.291 1.776s-8.508 1.355-8.846 2.477l-3.975.234s-1.403.186-1.542 3.131c-.139 2.944-.888 3.225-.888 3.225s-1.636 2.897-1.494 4.392c.142 1.494-1.264 2.246-1.264 2.246l5.842 15.191s.19 6.262-.888 8.552c-1.077 2.291-3.083 12.433-3.083 12.433s.84-.187.793.372c-.048.56-.999 6.686-.999 6.686s-.281 2.429-.749 3.273c-.467.843-.514 5.232-.514 5.232l-.746 3.178s1.775 3.975 4.486 3.412c2.711-.562 7.618-11.168 7.618-11.168l3.134-11.453 2.429-11.311.702-7.664 1.121-16.967 1.637-11.219s1.807-6.037 1.15-6.824z" fill-opacity=".1"/><path d="m266.573 86.423s-.844-.42-1.637.793c-.583.794-1.376 1.409-2.29 1.775-.914.367-8.505 1.356-8.847 2.477l-3.974.234s-1.4.19-1.542 3.134c-.142 2.945-.888 3.223-.888 3.223s-1.636 2.9-1.494 4.395c.142 1.494-1.264 2.243-1.264 2.243l5.845 15.19s.186 6.262-.888 8.553c-1.074 2.29-3.087 12.435-3.087 12.435s.841-.189.797.373c-.045.563-1.03 6.682-1.03 6.682s-.282 2.433-.749 3.274c-.468.84-.512 5.235-.512 5.235l-.749 3.178s1.776 3.971 4.487 3.412c2.71-.559 7.626-11.171 7.626-11.171l3.131-11.45 2.43-11.311.701-7.668 1.122-16.966 1.637-11.216s1.829-6.031 1.175-6.824z" fill="#424c51"/><path d="m236.565 122.598-2.711 1.871s-4.145.132-7.109-.598l-1.507-.669-.316-.133.316.098c1.564.464 2.787.455 3.744.133 3.836-1.293 3.412-7.627 3.264-9.059 0-.145-.025-.236-.032-.271v-.019l.022.038c.053.086.113.168.177.246.054.06.111.123.171.183l1.355 2.708v.114z" fill-opacity=".1"/><path d="m245.951 104.324-1.311.373-.186 2.663s-1.542-.234-1.962 1.58c-.42 1.813-1.169 2.667-1.169 2.667s-2.572 2.148-2.711 3.971l-1.58.982s-3.693-.843-4.533-2.337c0 0 1.684 12.059-7.292 9.114 0 0 10.05 4.392 10.517 5.002.468.61 3.552 2.382 6.357.888 2.806-1.495 3.412-3.792 3.412-3.792s2.711-3.791 2.803-4.347c.091-.556 2.211-1.216 2.211-1.216l4.019-9.722z" fill="#424c51"/><path d="m278.771 91.096 1.356-6.171s.606 2.01 1.216 2.477l2.01 1.545s2.009.932 2.71.932c.702 0 4.487.983 4.954 1.498.468.515 2.338.139 2.338.139s1.542.515 2.898.84c1.355.326 2.009 2.572 1.728 3.476-.232.897.016 1.854.654 2.527.562.562.843 2.385.843 2.385.685.226 1.253.714 1.58 1.356.468 1.027.316 3.27.316 3.27l-6.951 9.816s.092 3.791-.186 4.629c-.278.837.979 15.143.979 15.143l1.45 24.583s-1.917 1.637-2.338 1.823c-.42.187-.84-8.691-.84-9.02 0-.328-10.796-16.173-10.796-16.173s-1.45-2.335-1.45-2.843c0-.509-1.355-5.236-1.355-5.236l-2.057-9.115z" fill-opacity=".1"/><path d="m301.971 104.83v.537l-6.951 9.794s.095 3.791-.183 4.625c-.164.49.193 5.52.525 9.652.233 2.98.455 5.491.455 5.491l.616 10.426.831 14.155s-1.915 1.636-2.335 1.823c-.42.186-.841-8.692-.841-9.021 0-.328-10.799-16.169-10.799-16.169s-1.45-2.342-1.45-2.844-1.355-5.235-1.355-5.235l-2.054-9.115.932-27.857.765-6.167s1.169 2.013 1.775 2.477l2.01 1.542s2.009.948 2.711.948c.701 0 4.489.979 4.957 1.494.467.515 2.335.139 2.335.139s1.541.515 2.897.841c1.355.325 2.012 2.571 1.731 3.475-.233.898.015 1.855.654 2.528.559.559.841 2.382.841 2.382.684.228 1.252.716 1.579 1.358.335.68.367 1.978.354 2.721z" fill="#424c51"/><path d="m244.839 229.355c.231 0 10.047.373 9.861 1.962-.187 1.589-9.861-1.962-9.861-1.962z" fill-opacity=".1"/><path d="m247.035 232.018s6.591 1.075 4.859 2.057c-1.731.983-4.859-2.057-4.859-2.057z" fill-opacity=".1"/><path d="m271.543 228.325s10.938.948 9.301 2.152c-1.637 1.203-5.516 1.399-5.687 1.447-.171.047-3.614-3.599-3.614-3.599z" fill-opacity=".1"/><path d="m270.219 233.14s6.075 1.027 6.262 2.212c.186 1.184-6.262-2.212-6.262-2.212z" fill-opacity=".1"/><path d="m273.584 205.002s5.56 1.308 5.889 2.212z" fill-opacity=".1"/><path d="m252.128 209.021s-2.897.84-.092 2.527c2.806 1.688.092-2.527.092-2.527z" fill-opacity=".1"/><path d="m264.984 164.103c.316 0 5.421-1.68 7.197-.947 1.271.477 2.614.733 3.971.755z" fill-opacity=".1"/><path d="m265.638 169.43-.051.465-4.344 11.411s-.701 3.457-1.308 5.419c-.384 1.334-.688 2.69-.913 4.06l3.858-23.923z" fill-opacity=".1"/><path d="m272.424 149.292-1.81.032h-.057l-1.062-4.711 1.58-.085z" fill="#202527"/><path d="m294.477 143.586-1.166.948-3.883 3.2s-10.518 5.612-13.415.282c-2.553-4.695 9.371-8.047 12.243-8.777.389-.098.61-.149.61-.149z" fill="#fbbebe"/><path d="m249.559 97.639s2.057.948 2.528 2.243-2.528-2.243-2.528-2.243z" fill-opacity=".1"/><path d="m243.203 111.66s-2.992 3.646-1.776 5.055 1.776-5.055 1.776-5.055z" fill-opacity=".1"/><path d="m296.673 99.696s-2.806.281-2.897 2.71z" fill-opacity=".1"/><path d="m270.686 138.022c.279-.281 6.73-9.816 8.215-8.972z" fill-opacity=".1"/><path d="m282.746 76.044c.003 1.833-.45 3.637-1.317 5.251l-.083-.016c-.704-.148-1.071-.97-1.611-1.482-.678-.645-1.698-.788-2.527-.353-.833.499-1.313 1.43-1.239 2.398-.357-1.498-.243-3.087-.591-4.588-.347-1.501-1.393-3.017-2.827-3.042-.632 0-1.337.224-1.786-.237-.268-.278-.315-.718-.524-1.059-1.024-1.655-4.142-.818-5.415.032s-2.749 2.211-4.332 2.938c.043-6.073 5.051-11.046 11.125-11.046 6.102 0 11.124 5.022 11.124 11.125v.079z" fill-opacity=".1"/><path d="m270.244 72.638c.202.338.256.777.525 1.055.445.465 1.169.225 1.785.237 1.434.026 2.48 1.542 2.827 3.043.348 1.501.234 3.09.591 4.587-.075-.968.407-1.9 1.242-2.398.829-.435 1.85-.291 2.527.354.541.512.907 1.334 1.612 1.482.704.149 1.384-.528 1.639-1.264.256-.736.237-1.557.405-2.328.316-1.457 1.264-2.654 1.794-4.041.626-1.686.61-3.545-.047-5.219-.351-.879-.872-1.669-1.229-2.544-.537-1.333-.676-2.843-1.333-4.107-1.1-2.126-3.69-3.188-5.823-2.389-1.014.38-1.896 1.119-2.929 1.451-1.381.445-2.859.11-4.287-.089s-3.011-.218-4.161.72c-1.324 1.084-1.684 3.119-2.929 4.307-.521.499-1.169.818-1.719 1.264-.549.445-1.026 1.146-.948 1.895.083.967 1.03 1.845.68 2.743-.127.26-.303.493-.518.685-1.041 1.091-1.815 2.408-2.263 3.848 2.5.784 5.207-1.974 7.166-3.279 1.254-.831 4.37-1.671 5.393-.013z" fill="#7c5c5c"/><path d="m294.477 143.586-1.166.948c-1.027-1.706-5.238-5.118-5.238-5.118l.183-.177c.389-.098.61-.149.61-.149z" fill-opacity=".1"/><path d="m295.599 141.855s-.421 1.042-.85 1.94c-.43.897-.904 1.718-.926 1.052-.047-1.308-5.469-5.703-5.469-5.703l.736-.714.85-.828z" fill="#e7effd"/><path d="m295.785 134.936.616 10.426c-1.453-2.259-5.441-8.047-8.003-7.861l6.208-7.143c.259-.288.498-.593.714-.913.234 2.979.465 5.491.465 5.491z" fill-opacity=".1"/><path d="m295.599 141.855s-.421 1.042-.85 1.94c-1.631-2.234-3.871-4.872-5.659-5.371l.85-.828z" fill-opacity=".1"/><path d="m300.271 104.043 1.684 1.308s2.803.047 3.084 2.385 2.843 3.412 2.843 3.412 1.915 1.915 1.915 2.803 1.45 2.477 1.45 2.619 1.403 2.992 1.213 3.504c-.189.512 1.498 2.758.983 3.598-.422.755-.797 1.536-1.122 2.338-.324.802-2.195 4.209-3.317 5.002s-6.265 7.478-6.265 7.478-5.513 6.357-5.513 8.319c0 0-5.371-8.973-8.556-8.739l6.218-7.153s1.074-1.166 1.121-1.867c.048-.702 2.992-3.927 4.395-4.066 0 0 .231-1.918-.376-1.966-.607-.047-1.122-1.541-1.122-1.541s-4.107-4.86-4.161-7.946c-.053-3.087 5.526-9.488 5.526-9.488z" fill="#424c51"/><path d="m302.748 108.482s-3.924 2.9-3.083 3.832c.84.932 3.083-3.832 3.083-3.832z" fill-opacity=".1"/><path d="m302.935 120.45s7.292-2.338 8.04 0z" fill-opacity=".1"/><path d="m257.787 244.637s-3.928 2.572-5.89 2.212c-1.962-.361-3.974.657-3.974.657-1.353 1.477-3.059 2.587-4.957 3.226-3.16 1.074-7.614.65-10.139-.19-1.194-.398-1.292-.91-.717-1.545 2.746.547 8.878 1.637 10.53.844 2.149-1.03 5.235-3.274 5.235-3.274s4.022-.559 4.582-.559c.398 0 3.503-1.282 5.257-2.015z" fill-opacity=".1"/><path d="m281.568 249.894-.042.259s-.947 2.057-6.119 2.806-5.188-1.731-5.188-1.731.019-.266.05-.667c1.643.622 5.226 1.317 11.299-.667z" fill-opacity=".1"/><path d="m251.499 107.923s0 10.656-.913 11.708c-.913 1.053.913-11.708.913-11.708z" fill-opacity=".1"/><path d="m293.633 111.357 1.356 3.81s.54-3.741-1.356-3.81z" fill-opacity=".1"/><g opacity=".1"><path d="m260.586 70.502c.341-.878-.556-1.737-.673-2.679-.119.266-.17.557-.149.847.06.708.582 1.368.721 2.025.039-.061.073-.126.101-.193z"/><path d="m276.099 80.568c-.335-1.472-.237-3.033-.579-4.508-.341-1.476-1.393-3.017-2.824-3.043-.632 0-1.34.228-1.785-.233-.272-.278-.316-.721-.528-1.059-1.023-1.659-4.139-.818-5.415.032-1.896 1.264-4.537 3.927-6.989 3.327-.117.281-.224.568-.316.862 2.499.784 5.207-1.974 7.166-3.279 1.264-.847 4.392-1.687 5.415-.029.202.338.256.777.525 1.055.445.465 1.169.225 1.785.237 1.434.026 2.48 1.542 2.827 3.043.348 1.501.234 3.09.591 4.587-.023-.335.02-.672.127-.992z"/><path d="m283.125 78.818c-.253.739-.919 1.422-1.64 1.264-.72-.158-1.071-.97-1.608-1.485-.682-.639-1.698-.78-2.527-.351-.793.473-1.269 1.34-1.242 2.262.189-.57.582-1.052 1.103-1.352.829-.435 1.85-.292 2.527.354.54.512.907 1.333 1.612 1.482.704.148 1.383-.528 1.639-1.264.133-.437.219-.887.256-1.343-.03.147-.071.292-.12.433z"/><path d="m285.324 72.449c-.524 1.387-1.479 2.581-1.794 4.041-.064.293-.102.594-.136.897.316-1.453 1.263-2.645 1.791-4.028.233-.623.379-1.275.433-1.937-.072.349-.17.692-.294 1.027z"/></g></g><circle cx="217.779" cy="106.179" fill="#e6e8ec" r=".114"/><ellipse cx="258.137" cy="250.315" fill="#c3c5c7" fill-opacity=".2" rx="27.278" ry="2.783"/><path d="m236.29 144.882-.234.315-15.557 20.799-.281.376-10.486 14.018-20.726 43.066-.581 1.204-2.926 6.076c-.768 1.595-2.564 2.444-4.284 2.025l-48.854-11.924c-1.021-.248-1.893-.913-2.401-1.832l-4.698-8.458-.844-1.523-33.91-61.185-.291-.522-14.173-25.559 1.712-1.112 12.983-8.42.3-.196 27.338-17.737 1.725-1.119 38.561-25.019c4.695-3.045 10.991-2.113 14.603 2.161l28.75 34.027 1.264 1.517 20.868 24.687.114.136 10.492 12.41 1.321 1.564z" fill="#7d7d7d" fill-opacity=".2" fill-rule="nonzero"/><path d="m223.453 130.263-2.546 17.693-.768 5.339-.439 11.374-.035.888-2.284 59.428c-.08 2.01-1.755 3.619-3.767 3.619-.274 0-.549-.03-.818-.089l-24.624-5.498-.265-.06-63.154-14.094-1.16-.259-34.719-7.753.797-53.432.025-1.786.24-16.173.265-17.85 27.339-17.737 1.725-1.119c25.357 2.6 59.081 7.602 81.927 11.169l1.264 1.516 20.852 24.688z" fill-opacity=".1" fill-rule="nonzero"/><path d="m226.338 109.284-2.999 20.853-2.748 19.095-.768 5.327-.439 11.374-2.319 60.316c-.08 2.01-1.755 3.619-3.767 3.619-.274 0-.549-.03-.818-.09l-24.889-5.557-63.154-14.094-35.878-8.013.821-55.217.24-16.173.281-18.918.288-19.459c5.933-.281 15.696.354 27.351 1.526 26.097 2.619 61.672 7.917 84.931 11.566 14.243 2.234 23.867 3.845 23.867 3.845z" fill="#3596d1" fill-rule="nonzero"/><path d="m233.946 142.673-13.355 6.55-68.158 33.426-62.813-51.912-12.698-10.512-1.712 1.113 14.173 25.559-.821 55.217 35.878 8.013 4.689 8.457c.508.92 1.38 1.585 2.401 1.833l48.854 11.917c1.718.414 3.507-.433 4.275-2.025l2.925-6.075 24.89 5.557c.269.06.543.09.818.09 2.011 0 3.686-1.61 3.766-3.619l2.32-60.317 15.838-21.168.044-.534z" fill-opacity=".1" fill-rule="nonzero"/><path d="m75.207 121.338-5.633 96.466c-.108 1.836 1.146 3.496 2.941 3.896l149.605 33.221c.265.058.534.087.806.087 1.95 0 3.594-1.514 3.753-3.458l8.767-107.089-83.013 40.716z" fill="#e8e8ea" fill-rule="nonzero"/><path d="m70.604 220.013 77.721-47.951c2.366-1.435 5.453-.952 7.267 1.137l69.564 81.131c.253.291.376.082 0 0l-154.552-34.317c-.443-.098-.386.23 0 0z" fill-opacity=".1" fill-rule="nonzero"/><path d="m71.16 219.934 76.919-46.466c2.5-1.51 5.755-.998 7.671 1.207l68.935 79.279c.131.151.203.344.203.544 0 .456-.375.831-.831.831-.06 0-.119-.007-.177-.019l-152.471-33.857c-.379-.082-.653-.421-.653-.809 0-.291.154-.561.404-.71z" fill="#e8e8ea" fill-rule="nonzero"/></svg>