<svg width="748" height="432" viewBox="0 0 748 432" fill="none" xmlns="http://www.w3.org/2000/svg">
<rect width="748" height="432" fill="white"/>
<rect width="748" height="432" rx="15" fill="white"/>
<rect x="40" y="271" width="524" height="44" rx="5" fill="#9B9FA1"/>
<rect x="40" y="120" width="524" height="44" rx="5" fill="#89C731"/>
<rect x="185" y="20" width="522" height="68" rx="34" fill="#D9D9D9"/>
<rect x="40" y="181" width="395" height="19" fill="#D1D2D3"/>
<rect x="40" y="220" width="496" height="19" fill="#D1D2D3"/>
<rect x="40" y="332" width="395" height="19" fill="#E8E8E9"/>
<rect x="40" y="371" width="395" height="19" fill="#E8E8E9"/>
<rect x="663.477" y="151" width="8" height="41.2014" transform="rotate(45 663.477 151)" fill="#8AC63E"/>
<rect x="658" y="156.657" width="8" height="41.2014" transform="rotate(-45 658 156.657)" fill="#8AC63E"/>
<rect x="659" y="159" width="9" height="59" fill="#8AC63E"/>
<path d="M92.3428 57.5387C92.3428 63.3685 87.8253 67.6643 82.2812 67.6643C76.7372 67.6643 72.2197 63.3685 72.2197 57.5387C72.2197 51.6678 76.7372 47.413 82.2812 47.413C87.8253 47.413 92.3428 51.6678 92.3428 57.5387ZM87.9383 57.5387C87.9383 53.8956 85.3201 51.403 82.2812 51.403C79.2424 51.403 76.6241 53.8956 76.6241 57.5387C76.6241 61.1452 79.2424 63.6743 82.2812 63.6743C85.3201 63.6743 87.9383 61.1406 87.9383 57.5387Z" fill="#EA4335"/>
<path d="M114.049 57.5387C114.049 63.3685 109.531 67.6643 103.987 67.6643C98.4431 67.6643 93.9255 63.3685 93.9255 57.5387C93.9255 51.6724 98.4431 47.413 103.987 47.413C109.531 47.413 114.049 51.6678 114.049 57.5387ZM109.644 57.5387C109.644 53.8956 107.026 51.403 103.987 51.403C100.948 51.403 98.33 53.8956 98.33 57.5387C98.33 61.1452 100.948 63.6743 103.987 63.6743C107.026 63.6743 109.644 61.1406 109.644 57.5387Z" fill="#FBBC05"/>
<path d="M134.85 48.0248V66.2035C134.85 73.6813 130.482 76.7354 125.318 76.7354C120.456 76.7354 117.531 73.453 116.427 70.7687L120.262 69.1572C120.945 70.8052 122.618 72.75 125.313 72.75C128.619 72.75 130.667 70.6911 130.667 66.8152V65.3589H130.514C129.528 66.587 127.628 67.6598 125.232 67.6598C120.217 67.6598 115.622 63.2498 115.622 57.5752C115.622 51.8596 120.217 47.413 125.232 47.413C127.624 47.413 129.523 48.4859 130.514 49.6774H130.667V48.0293H134.85V48.0248ZM130.979 57.5752C130.979 54.0098 128.623 51.403 125.625 51.403C122.586 51.403 120.04 54.0098 120.04 57.5752C120.04 61.1041 122.586 63.6743 125.625 63.6743C128.623 63.6743 130.979 61.1041 130.979 57.5752Z" fill="#4285F4"/>
<path d="M141.746 37.3696V67.0435H137.45V37.3696H141.746Z" fill="#34A853"/>
<path d="M158.487 60.8713L161.906 63.1722C160.802 64.8202 158.143 67.6598 153.549 67.6598C147.851 67.6598 143.596 63.2133 143.596 57.5341C143.596 51.5126 147.887 47.4085 153.056 47.4085C158.261 47.4085 160.807 51.5902 161.639 53.85L162.096 55.0004L148.688 60.6065C149.714 62.638 151.31 63.6743 153.549 63.6743C155.792 63.6743 157.347 62.5604 158.487 60.8713ZM147.964 57.2283L156.927 53.4711C156.434 52.2065 154.951 51.3254 153.205 51.3254C150.967 51.3254 147.851 53.3204 147.964 57.2283V57.2283Z" fill="#EA4335"/>
<path d="M55.9583 54.9046V50.6087H70.2978C70.438 51.3574 70.5103 52.243 70.5103 53.2017C70.5103 56.4248 69.6376 60.4102 66.8248 63.2498C64.089 66.1259 60.5934 67.6598 55.9629 67.6598C47.38 67.6598 40.1628 60.602 40.1628 51.9372C40.1628 43.2724 47.38 36.2146 55.9629 36.2146C60.711 36.2146 64.0935 38.0954 66.6349 40.547L63.6323 43.5783C61.8099 41.8526 59.3408 40.5104 55.9583 40.5104C49.6908 40.5104 44.7888 45.6098 44.7888 51.9372C44.7888 58.2646 49.6908 63.3639 55.9583 63.3639C60.0237 63.3639 62.339 61.7159 63.8222 60.2185C65.0251 59.0041 65.8164 57.2694 66.1284 54.9L55.9583 54.9046V54.9046Z" fill="#4285F4"/>
</svg>
