<svg clip-rule="evenodd" fill-rule="evenodd" stroke-linejoin="round" stroke-miterlimit="2" viewBox="0 0 327 188" xmlns="http://www.w3.org/2000/svg"><circle cx="70.852" cy="149.773" fill="#f2f2f2" r="17.006"/><circle cx="73.617" cy="147.284" fill="#ffc814" r="17.006"/><path d="m87.313 128.468h210.408v.574h-210.408z" fill="#373f43"/><path d="m196.283 5.354h-74.682v-1.539h-33.863v1.539h-74.99c-2.771 0-5.052 2.281-5.052 5.052v102.262c0 2.772 2.281 5.052 5.052 5.052h183.535c2.772 0 5.052-2.28 5.052-5.052v-102.262c0-2.771-2.28-5.052-5.052-5.052z" fill="#373f43" fill-rule="nonzero"/><path d="m14.469 14.282h180.093v101.591h-180.093z" fill="#3596d1"/><circle cx="104.362" cy="9.664" fill="#3596d1" r="1.847"/><path d="m143.059 115.873h-128.59v-101.591z" fill-opacity=".1" fill-rule="nonzero"/><circle cx="42.648" cy="90.96" fill="#f2f2f2" r="17.311"/><path d="m146.382 69.071h16.823v3.515h-16.823zm-20.337-27.369h57.498v1.507h-57.498zm0 4.771h57.498v1.507h-57.498zm0 4.771h57.498v1.507h-57.498zm0 4.77h57.498v1.507h-57.498zm0 4.771h57.498v1.507h-57.498z" fill="#373f43"/><path d="m176.513 16.343h7.03v7.03h-7.03z" fill="#f2f2f2"/><path d="m186.807 26.637h-8.537v-8.537h8.537zm-8.166-.371h7.795v-7.794h-7.795zm27.751 87.76h-17.576v-1.267c-.001-.137-.114-.25-.251-.251h-6.026c-.138.001-.251.113-.252.251v1.267h-3.766v-1.267c-.001-.137-.114-.25-.251-.251h-6.026c-.137.001-.25.114-.251.251v1.267h-3.766v-1.267c-.001-.137-.114-.25-.251-.251h-6.026c-.137.001-.25.114-.251.251v1.267h-3.767v-1.267c-.001-.137-.114-.25-.251-.251h-6.026c-.137.001-.25.114-.251.251v1.267h-3.766v-1.267c-.001-.137-.114-.25-.251-.251h-6.026c-.137.001-.25.114-.251.251v1.267h-3.767v-1.267c-.001-.137-.114-.25-.251-.251h-6.026c-.137.001-.25.114-.251.251v1.267h-3.766v-1.267c-.001-.137-.114-.25-.251-.251h-47.204c-.137.001-.25.114-.251.251v1.267h-3.767v-1.267c-.001-.137-.114-.25-.251-.251h-6.026c-.137.001-.25.114-.251.251v1.267h-3.766v-1.267c-.001-.137-.114-.25-.251-.251h-6.026c-.137.001-.25.114-.251.251v1.267h-3.766v-1.267c-.001-.138-.114-.25-.252-.251h-6.026c-.137.001-.25.114-.251.251v1.267h-3.766v-1.267c-.001-.137-.114-.25-.251-.251h-6.026c-.137.001-.25.114-.251.251v1.267h-3.766v-1.267c-.001-.137-.114-.25-.251-.251h-6.027c-.137.001-.25.114-.251.251v1.267h-3.766v-1.267c-.001-.137-.114-.25-.251-.251h-6.026c-.137.001-.25.114-.251.251v1.267h-11.55c-3.306 0-6.026 2.72-6.026 6.026v2.725c0 3.305 2.72 6.026 6.026 6.026h200.366c3.305 0 6.026-2.721 6.026-6.026v-2.725c0-3.306-2.721-6.026-6.026-6.026zm-159.554-12.254c-11.967 0-21.815-9.848-21.815-21.816s9.848-21.816 21.815-21.816c11.968 0 21.816 9.848 21.816 21.816-.013 11.963-9.853 21.802-21.816 21.816zm0-43.058c-11.652 0-21.241 9.589-21.241 21.242s9.589 21.242 21.241 21.242c11.653 0 21.242-9.589 21.242-21.242-.013-11.648-9.594-21.229-21.242-21.242z" fill="#373f43" fill-rule="nonzero"/><path d="m168.261 9.342h73.198v.574h-73.198zm-51.669 151.562h210.408v.574h-210.408zm-61.285 26.409h73.198v.574h-73.198z" fill="#373f43"/><path d="m135.201 157.878h8.037v8.037h-8.037z" fill="#ed1c24"/><path d="m148.118 161.323h-9.759v-9.76h9.759zm-9.335-.425h8.911v-8.911h-8.911z" fill="#373f43" fill-rule="nonzero"/><path d="m228.492 6.315h8.037v8.037h-8.037z" fill="#ed1c24"/><path d="m241.41 9.76h-9.76v-9.76h9.76zm-9.336-.425h8.911v-8.911h-8.911z" fill="#373f43" fill-rule="nonzero"/><path d="m309.441 157.878h8.037v8.037h-8.037z" fill="#ed1c24"/><path d="m322.358 161.323h-9.76v-9.76h9.76zm-9.335-.425h8.911v-8.911h-8.911zm-9.561-94.314h-.683v-18.705c0-5.939-4.887-10.826-10.826-10.826h-39.628c-5.939 0-10.826 4.887-10.826 10.826v102.615c0 5.939 4.887 10.826 10.826 10.826h39.628c5.939 0 10.826-4.887 10.826-10.826v-70.596h.683z" fill="#373f43" fill-rule="nonzero"/><path d="m300.474 48.515v102.466c.001 4.435-3.648 8.085-8.084 8.086h-39.819c-4.435-.001-8.084-3.651-8.084-8.086v-102.466c.001-4.434 3.65-8.082 8.084-8.083h4.831c-.188.46-.284.953-.284 1.45.01 2.103 1.737 3.83 3.84 3.84h22.703c2.107 0 3.841-1.733 3.841-3.84 0-.497-.097-.99-.284-1.45h5.172c4.435.001 8.083 3.649 8.084 8.083z" fill="#8cc63f" fill-rule="nonzero"/><path d="m266.55 107.994h11.862v3.515h-11.862zm-14.341-27.369h40.543v1.507h-40.543zm0 4.771h40.543v1.507h-40.543zm0 4.771h40.543v1.507h-40.543zm0 4.77h40.543v1.507h-40.543zm0 4.771h40.543v1.507h-40.543z" fill="#373f43"/><path d="m266.866 60.619h7.03v7.03h-7.03z" fill="#f2f2f2"/><path d="m269.558 62.377v8.537h8.537v-8.537zm8.166 8.167h-7.796v-7.797h7.796z" fill="#373f43" fill-rule="nonzero"/><path d="m300.474 140.039v10.942c.001 4.435-3.648 8.086-8.084 8.086h-39.819c-4.435-.001-8.084-3.651-8.084-8.086v-55.174l33.548 26.503.574.454 6.241 4.929.582.462z" fill-opacity=".1" fill-rule="nonzero"/><circle cx="269.036" cy="143.154" fill="#f2f2f2" r="12.592"/><path d="m91.905 187.887c-13.7 0-24.973-11.273-24.973-24.973s11.273-24.974 24.973-24.974 24.974 11.274 24.974 24.974c-.016 13.694-11.279 24.958-24.974 24.973zm0-49.373c-13.385 0-24.399 11.015-24.399 24.4s11.014 24.399 24.399 24.399c13.386 0 24.4-11.014 24.4-24.399-.015-13.38-11.02-24.384-24.4-24.4zm180.843 14.353c-8.661 0-15.788-7.127-15.788-15.788s7.127-15.788 15.788-15.788c8.66 0 15.787 7.127 15.787 15.788-.009 8.657-7.13 15.778-15.787 15.788zm0-31.001c-8.346 0-15.214 6.867-15.214 15.213s6.868 15.214 15.214 15.214 15.213-6.868 15.213-15.214c-.009-8.342-6.871-15.204-15.213-15.213z" fill="#373f43" fill-rule="nonzero"/></svg>