<svg clip-rule="evenodd" fill-rule="evenodd" stroke-miterlimit="10" viewBox="0 0 327 254" xmlns="http://www.w3.org/2000/svg" xmlns:xlink="http://www.w3.org/1999/xlink"><linearGradient id="a"><stop offset="0" stop-color="#808080" stop-opacity=".2"/><stop offset=".54" stop-color="#808080" stop-opacity=".09"/><stop offset="1" stop-color="#808080" stop-opacity=".08"/></linearGradient><linearGradient id="b" gradientTransform="matrix(0 -187.743 187.743 0 10025 240.306)" gradientUnits="userSpaceOnUse" x1="0" x2="1" xlink:href="#a" y1="0" y2="0"/><linearGradient id="c" gradientTransform="matrix(0 -30.5348 30.5348 0 6953.77 253.099)" gradientUnits="userSpaceOnUse" x1="0" x2="1" xlink:href="#a" y1="0" y2="0"/><linearGradient id="d" gradientTransform="matrix(0 -90.3473 90.3473 0 276.35 90.348)" gradientUnits="userSpaceOnUse" x1="0" x2="1" xlink:href="#a" y1="0" y2="0"/><path d="m298.325 240.307h-281.406v-182.009c0-3.149 2.591-5.74 5.74-5.74h269.926c3.149 0 5.74 2.591 5.74 5.74z" fill="url(#b)" fill-rule="nonzero"/><path d="m26.52 55.864h262.185c3.149 0 5.74 2.591 5.74 5.74v178.703h-273.65v-178.7c-.002-3.145 2.581-5.735 5.725-5.743z" fill="#fff" fill-rule="nonzero"/><path d="m29.605 66.595h256.031v167.932h-256.031z" fill="#f5f5f5"/><path d="m30.586 74.748h254.944v151.086h-254.944z" fill="#e0e0e0" fill-opacity=".8"/><path d="m30.586 66.719h254.944v8.029h-254.944z" fill="#f5f5f5"/><circle cx="36.053" cy="70.613" fill="#e9454b" r="1.947"/><circle cx="41.404" cy="70.613" fill="#ffc713" r="1.947"/><circle cx="46.759" cy="70.613" fill="#8bc53e" r="1.947"/><path d="m306.198 252.376c-15.665 1.188-284.684.727-294.082 0-12.323-5.94-12.098-28.987-12.098-28.987l123.374-.825.415 7.015h52.793l2.064-6.176h136.722s2.717 21.129-9.188 28.973z" fill="url(#c)" fill-rule="nonzero"/><path d="m313.384 225.245h-134.055c.646.748 1.002 1.704 1.002 2.692 0 2.258-1.858 4.116-4.116 4.116h-51.202c-2.258 0-4.116-1.858-4.116-4.116 0-.988.356-1.944 1.002-2.692h-120.043s-.207 20.014 11.967 25.187c9.282.618 275.013 1.032 290.486 0 11.774-6.826 9.075-25.187 9.075-25.187z" fill="#f5f5f5" fill-rule="nonzero"/><circle cx="29.71" cy="229.579" fill="#e0e0e0" r="1.649"/><circle cx="34.662" cy="229.579" fill="#e0e0e0" r="1.649"/><circle cx="39.61" cy="229.579" fill="#e0e0e0" r="1.649"/><path d="m152.539 136.544h11.695c27.802 0 50.679 22.877 50.679 50.679v36.842h-113.053v-36.842c0-27.802 22.878-50.679 50.679-50.679z" fill="#3596d1" fill-rule="nonzero"/><circle cx="158.497" cy="65.171" fill="#333" r="51.668"/><g fill-rule="nonzero"><path d="m150.89 121.496h14.942c5.78 0 10.536 4.756 10.536 10.536v10.266c0 8.837-7.272 16.109-16.109 16.109h-3.811c-8.836 0-16.108-7.272-16.108-16.109v-10.252c0-5.78 4.756-10.535 10.536-10.535z" fill-opacity=".1"/><path d="m140.34 120.443h36.046v20.816c0 8.837-7.272 16.109-16.108 16.109h-3.83c-8.836 0-16.108-7.272-16.108-16.109z" fill="#fdb797"/><path d="m140.405 125.641c11.615 4.338 24.408 4.373 36.046.098v-4.425h-36.046z" fill-opacity=".1"/></g><circle cx="158.497" cy="76.386" fill="#fdb797" r="51.668"/><path d="m109.101 58.098h98.525s-8.411-39.784-45.659-37.267c-37.249 2.518-52.866 37.267-52.866 37.267z" fill-opacity=".1" fill-rule="nonzero"/><path d="m109.101 56.761h98.525s-8.411-39.784-45.659-37.249c-37.249 2.536-52.866 37.249-52.866 37.249z" fill="#333" fill-rule="nonzero"/><ellipse cx="107.898" cy="74.184" fill="#fdb797" rx="4.806" ry="9.013"/><ellipse cx="208.828" cy="74.184" fill="#fdb797" rx="4.806" ry="9.013"/><path d="m116.748 30.4c1.181-3.858 3.328-7.545 6.641-9.845 2.517-1.747 5.529-2.587 8.417-3.611 4.274-1.514 8.375-3.476 12.236-5.853 4.381-2.699 8.497-5.95 13.322-7.734 8.301-3.07 17.547-1.41 26.117.792 2.111.541 4.247 1.13 6.107 2.27 2.154 1.319 3.807 3.303 5.42 5.246l13.602 16.407c1.246 1.5 2.5 3.019 3.379 4.762.82 1.689 1.343 3.507 1.547 5.374.364 3.008.08 6.197-1.453 8.817-2.299 3.927-7.04 5.9-11.585 6.081-4.545.182-9.006-1.137-13.373-2.416-14.081-4.123-28.337-7.967-42.941-9.678-7.248-.894-14.562-1.131-21.852-.708-2.289.149-5.312 1.199-6.703-1.134-1.203-2.023.498-6.742 1.119-8.77z" fill="#333" fill-rule="nonzero"/><path d="m123.992 183.95v40.115m69.694-40.115v40.115" fill="none" stroke="#000" stroke-opacity=".05" stroke-width="1.45"/><path d="m327 72.103h-64.833l-21.881 18.244v-18.244h-14.587v-72.103h101.301z" fill="url(#d)" fill-rule="nonzero"/><path d="m227.073.857h98.554v68.949h-98.554z" fill="#fff"/><path d="m238.171 10.993h78.09v2.049h-78.09zm0 9.228h53.687v2.049h-53.687zm0 9.224h64.426v2.049h-64.426z" fill="#e0e0e0"/><path d="m238.171 38.673h51.737v2.049h-51.737zm0 9.224h78.09v2.049h-78.09z" fill="#8bc53e"/><path d="m238.171 57.124h78.09v2.049h-78.09z" fill="#e0e0e0"/><path d="m243.933 68.466v18.237l20.057-20.061z" fill="#fff" fill-rule="nonzero"/></svg>